# xmcd CD database file
#
# Track frame offsets:
#	150
#	13305
#	25347
#	38620
#	50425
#	59737
#	71135
#	82525
#	94767
#	107902
#	121032
#	133160
#	145910
#	157677
#	170852
#	184162
#	195602
#	206925
#	216487
#	226680
#	238710
#	249592
#	261977
#	273307
#	284287
#
# Disc length: 3918 seconds
#
# Revision: 3
# Processed by: cddbd v1.5.2PL0 Copyright (c) Steve Scherf et al.
# Submitted via: CDex 1.51
#
DISCID=750f4c19
DTITLE=Jimmy Liggins - Jimmy Liggins and His Drops Of Joy
DYEAR=1947
DGENRE=Blues
TTITLE0=I Can't Stop It
TTITLE1=Troubles Goodbye
TTITLE2=Teardrop Blues
TTITLE3=Cadillac Boogie
TTITLE4=Move Out Baby
TTITLE5=Careful Love
TTITLE6=Homecoming Blues
TTITLE7=Baby I Can't Forget You
TTITLE8=Don't Put Me Down
TTITLE9=Nite Life Boogie
TTITLE10=Mississippi Boogie
TTITLE11=Come Back Baby
TTITLE12=Answer To Teardrop Blues
TTITLE13=That Song Is Gone
TTITLE14=Saturday Night Boogie Woogie Man
TTITLE15=Shuffle Shuck
TTITLE16=The Washboard Special
TTITLE17=That's What's Knockin' Me Out
TTITLE18=Hep Cat Boogie
TTITLE19=I Want My Baby For Christmas
TTITLE20=Train Blues
TTITLE21=Baby's Boogie
TTITLE22=Drunk
TTITLE23=Going Away
TTITLE24=Come Back Home
EXTD=SPCD 7005\nLegends of Specialty Series\n YEAR: 1947
EXTT0=
EXTT1=
EXTT2=
EXTT3=
EXTT4=
EXTT5=
EXTT6=
EXTT7=
EXTT8=
EXTT9=
EXTT10=
EXTT11=
EXTT12=
EXTT13=
EXTT14=
EXTT15=
EXTT16=
EXTT17=
EXTT18=
EXTT19=
EXTT20=
EXTT21=
EXTT22=
EXTT23=
EXTT24=
PLAYORDER=
